<svg id="Layer_1" data-name="Layer 1" xmlns="http://www.w3.org/2000/svg" viewBox="0 0 2282 744">
  <title>grape_logo</title>
  <path d="M122.13,208.51c40.56,0,73.56,32.79,73.59,73.15a73.38,73.38,0,1,1-73.59-73.15Z" fill="#ffffff" />
  <path d="M384.31,281.93A73.27,73.27,0,0,1,311,355.27c-40.6,0-73.28-33.13-73.13-74,.15-40.47,33-72.78,73.84-72.71C351.83,208.57,384.37,241.48,384.31,281.93Z" fill="#ffffff" />
  <path d="M573.1,281.93a73.22,73.22,0,1,1-146.43-.2c0-40.88,32.71-73.3,73.81-73.22C540.64,208.58,573.12,241.42,573.1,281.93Z" fill="#ffffff" />
  <path d="M499.94,403.13A61.87,61.87,0,1,1,438,465,61.81,61.81,0,0,1,499.94,403.13Z" fill="#ffffff" />
  <path d="M311,403.13a61.87,61.87,0,1,1-61.94,61.95A61.62,61.62,0,0,1,311,403.13Z" fill="#ffffff" />
  <path d="M260.63,97.29a50.57,50.57,0,1,1,50.51,50.34A50.37,50.37,0,0,1,260.63,97.29Z" fill="#ffffff" />
  <path d="M550.36,653.81a50.58,50.58,0,1,1-50.43-50.44A50.48,50.48,0,0,1,550.36,653.81Z" fill="#ffffff" />
  <path d="M998.5,277.89c-5.64-37.12-34.71-62.47-72.43-62.64q-76.73-.34-153.46,0c-42.38.21-73.22,31.53-73.29,73.86q-.08,43.49,0,87a73.68,73.68,0,0,0,2.1,17.8c8.1,32.46,36.59,54.7,70.51,54.77,51,.1,102,0,153,0,5.88,0,6.46.51,4.79,6.25-3.58,12.27-11.92,19.7-24.26,22.6-7.72,1.82-15.61.83-23.41.85-35.49.11-71-.06-106.48.1-19.44.08-31.71,12.64-31.73,31.9a72.83,72.83,0,0,1-.07,9c-.5,4,1.23,4.55,4.75,4.53,30.66-.13,61.32-.08,92-.08v-.08h85c42.19,0,73.52-31.24,73.56-73.44q.06-80.73,0-161.46A72.83,72.83,0,0,0,998.5,277.89ZM926.34,402.55c-21-.07-42,0-63,0-20.15,0-40.31,0-60.46,0a34.14,34.14,0,0,1-14.09-2.76c-11.53-5.12-18.27-13.61-18.28-26.62,0-27.48-.14-55,0-82.45.11-16.37,13.26-28.69,31.32-28.85,32.31-.3,64.63-.13,97,0a32.84,32.84,0,0,1,20,6.56c7.2,5.4,11.46,12.44,11.46,21.64,0,36.31,0,72.62.12,108.93C930.5,402.48,929,402.56,926.34,402.55Z" fill="#ffffff" />
  <path d="M1833.19,214.4q-75.24-.08-150.49,0a68.94,68.94,0,0,0-11,.61c-38,6.19-62.81,35.46-62.85,74q0,55.74,0,111.49c0,39.66,0,79.33-.07,119,0,3.41.73,4.49,4.32,4.45q28.24-.28,56.5,0c3.83.05,4.64-1.07,4.61-4.72-.2-21.83,0-43.66-.26-65.49-.06-4.59,1.15-5.77,5.73-5.75q76.24.3,152.49.17c43.63-.08,75-31.47,75.07-75,.06-28.33.12-56.66,0-85C1907.06,245.87,1875.48,214.44,1833.19,214.4Zm-28.52,187.07c-21,.12-42,0-63,0v0c-21,0-42-.1-63,.09-3.74,0-4.71-.89-4.69-4.66.16-34.48.64-69-.11-103.43-.45-20.51,14.6-32.55,31.84-32.69q49-.44,97.93,0c15,.11,26.81,8.77,30.59,21.27a33.76,33.76,0,0,1,1,9.89c0,26.15-.45,52.31.17,78.44C1835.93,390.9,1818.75,401.39,1804.67,401.47Z" fill="#ffffff" />
  <path d="M1505.39,215.06c-28,.64-56,.12-84,.12-27,0-54-.05-81,0-5.08,0-11.88-2.25-14.76,1-2.52,2.85-.81,9.5-.81,14.47,0,13.64,6.94,23.31,19.84,28a40.52,40.52,0,0,0,14.24,2q58.74,0,117.49,0c21.91,0,34.11,12.17,34.13,33.82a20.42,20.42,0,0,0,0,3.5c.81,4.68-1.21,5.67-5.68,5.66q-75.5-.28-151-.15c-46.3.17-80.69,43.85-70.19,88.75,7.89,33.73,36.43,56.35,71.76,56.45,50.33.15,100.66.06,151,0a70.09,70.09,0,0,0,12-.74c37.16-6.45,61.7-35.58,61.8-73.34.07-28.17-.64-56.35.18-84.49C1581.43,253.87,1547.85,214.1,1505.39,215.06Zm5.2,139.51c-.27,5.31-.24,10.66,0,16,.75,20.18-16,30.69-29.89,30.82-33.81.32-67.63.26-101.44,0A30.37,30.37,0,0,1,1356,390.44c-8.48-9.75-8.25-20.6.63-30,6.94-7.32,15.64-10.34,25.61-10.31,20.15.06,40.31,0,60.47,0,21.15,0,42.31.08,63.46-.08C1509.65,350.07,1510.77,351.07,1510.59,354.57Z" fill="#ffffff" />
  <path d="M2172.07,214.43c-51.15-.23-102.29-.13-153.44,0-40.56.07-72.41,31.25-73,71.77-.41,30-.15,60-.14,90a67.14,67.14,0,0,0,2,16.32c8.45,33.45,36.75,55.49,72,55.71,28.83.17,57.65,0,86.47,0,30.16,0,60.31-.06,90.47.09,3.63,0,5.07-.73,4.76-4.63-.37-4.64-.13-9.33-.09-14a24.93,24.93,0,0,0-7.73-18.34c-7-7-15.59-9.81-25.34-9.81-40.82,0-81.63.11-122.45-.06-19-.07-31.46-12.91-31.48-31.78a69.26,69.26,0,0,0,0-7.49c-.37-3.49.87-4.54,4.41-4.49,14.49.2,29,.1,43.48.08,38,0,76,.53,113.95-.34,36.27-.83,67-32.76,68-69C2245.07,248.41,2212.46,214.61,2172.07,214.43Zm-1.42,84.74c-6.07,8.57-14.69,13.3-25,13.36-42.65.27-85.3.1-128,.22-3.33,0-3.82-1.3-3.74-4.13.17-6.16,0-12.32.06-18.49.11-14.95,11.33-27.12,26.49-28.74h0c2.19-1,4.55-.85,6.86-.85q47.18,0,94.33,0c2.3,0,4.68-.35,6.84.87,12,1.61,20.52,7.75,25.28,19C2176.72,287.39,2174.64,293.53,2170.65,299.17Z" fill="#ffffff" />
  <path d="M1204.27,215.25c-30.64.66-61.31.11-92,.15-42.37,0-74.16,31.84-74.23,74.23q0,37.49,0,75c0,26.66.08,53.32-.1,80,0,3.82,1.07,4.7,4.75,4.67,20.16-.18,40.32-.29,60.48.05,5.16.09,6.23-1.35,6.21-6.31-.19-49.49-.14-99-.1-148.46,0-18,10.26-30.21,28.15-32.19a227.29,227.29,0,0,1,43.41-.16c16.12,1.33,24.39,9.35,28.3,25.41.67,2.74,2.34,2.32,4.09,2.32,20.49,0,41-.09,61.48.1,3.83,0,4.31-1.37,4.07-4.66C1275.7,244.06,1241.33,214.46,1204.27,215.25Z" fill="#ffffff" />
  <path d="M2144.57,261H2044.4a10.05,10.05,0,0,0-3.93.36l108,0A9.87,9.87,0,0,0,2144.57,261Z" fill="#ffffff" />
  <path d="M2011.2,571.94c-2.7-.19-4.68-.17-4.61,3.74.26,13,.1,26,.1,39v14.17c-1.61.25-1.83-.73-2.24-1.34q-8.78-13.05-17.5-26.13c-6-9-12.08-17.94-18-27-2.82-4.31-7-2.45-10.43-2.12-2.92.29-1.37,3.62-1.38,5.5-.12,21.49,0,43-.17,64.47,0,3.86,1.08,4.7,4.73,4.67s5.15-.73,5.09-4.89c-.26-17.32-.11-34.65-.11-52l.93-.41c.82,1.16,1.64,2.32,2.43,3.5,10.73,16,21.62,32,32.06,48.21,2.8,4.35,5.84,6.14,10.89,5.53,2.27-.28,3.13-.68,3.12-3.12-.08-22.83-.14-45.65,0-68.47C2016.17,570.93,2013.47,572.1,2011.2,571.94Z" fill="#ffffff" />
  <path d="M945.79,572.46C931,577.25,922.14,591.18,922,609.67c-.09,16.74,8.32,30.43,22.07,35.9,23.57,9.37,46.16-5.05,49.41-31.53C997.09,584.87,972.8,563.71,945.79,572.46Zm37.73,36.69c-.35,3.94-.39,7.75-1.42,11.5-3.44,12.45-12.76,19.32-25.86,18.89-11.31-.37-20.79-8.78-23.15-20.54a49,49,0,0,1,.19-19.38c2.64-13.14,12.27-20.66,25.64-20.35,12.48.3,22,9.18,24,22.54C983.25,604.28,983.32,606.79,983.52,609.15Z" fill="#ffffff" />
  <path d="M1811.13,572c-14.06-3.59-26.79-.78-36.77,10.45-6.37,7.18-8.53,16-8.87,25.79-.52,2.91.06,6.22.54,9.49,2.49,17.27,15.52,29.21,33.09,30.46,17.09,1.22,31.35-9,36.17-25.87a46.82,46.82,0,0,0,.54-23.68C1832.72,585.06,1824.83,575.46,1811.13,572Zm15.73,37.17a42.32,42.32,0,0,1-2,13.36c-3.89,11.72-13.92,18-26.76,17-11.22-.92-20.43-10.12-22-22.39a50.65,50.65,0,0,1,.52-17.4c2.84-13,11.73-20.35,24.55-20.42,12.26-.07,21.61,7.5,24.49,20A35.61,35.61,0,0,1,1826.86,609.13Z" fill="#ffffff" />
  <path d="M789.39,605.81c-7.61-2.34-15.39-4.12-23-6.38-4.19-1.24-6.86-4.07-6.84-8.73,0-4.48,2.43-7.46,6.33-9.34a21.43,21.43,0,0,1,10.21-1.88c11,0,14.47,2.34,18.53,12.12,1.74,4.17,5.15,1.33,7.72,1.55s1.88-2.24,1.61-3.7c-1.15-6.4-4.37-11.64-10.18-14.61-11.22-5.73-22.84-6.06-34-.15-13.07,6.92-13.12,24.58-.45,32.18,3.91,2.34,8.26,3.43,12.57,4.63,6.23,1.73,12.7,2.67,18.61,5.45,3.85,1.81,6.44,4.64,6.53,9.21s-2.15,7.94-6,10.19A23.67,23.67,0,0,1,756.8,624.3c-1.65-4.38-5.18-1.35-7.75-1.58-3.17-.29-1.9,2.41-1.61,3.95,1.89,10.1,7.91,16.7,17.65,19.64a44.55,44.55,0,0,0,21.73,1.08c13.87-2.75,22.25-14.4,19.16-26.66C803.81,612.09,797.14,608.19,789.39,605.81Z" fill="#ffffff" />
  <path d="M2180,606.56c-8-2.66-16.3-4.55-24.42-6.92-4.57-1.32-7.69-4.15-7.5-9.27s3.46-8.23,8-9.7a30.12,30.12,0,0,1,16.26-.41c5.37,1.25,9.18,4.5,10.26,9.75,1.3,6.27,5.75,3.41,8.53,3,3.7-.52,1.25-3.74.81-5.56-1.59-6.55-5.78-11.11-11.9-13.85a39.33,39.33,0,0,0-15.11-3c-5.85.15-11.59,1.07-16.74,4.07a18.47,18.47,0,0,0-9.66,16.9c0,7.2,3.71,12.23,9.84,15.63,3.81,2.11,8,3.17,12.17,4.33,6.38,1.79,13.08,2.58,19,5.74,7.46,4,8.26,13.1,1.57,18.06-10.14,7.51-33.66,4.57-35.85-10.64-.71-5-4.8-1.65-7.26-2-3.07-.47-2.31,2.19-2,3.8,1.49,8.88,6.34,15.39,14.68,18.73a40.71,40.71,0,0,0,28.35,1.13c8.67-2.83,14.7-8.57,15.92-18C2196.26,618,2191,610.2,2180,606.56Z" fill="#ffffff" />
  <path d="M1336,572c-4.47-2.11-8.76.52-8.78,5.4-.08,14.82.08,29.64-.35,44.44-.28,9.57-4.27,14.74-11.7,16.45a30.25,30.25,0,0,1-13.36.33c-7.39-1.59-11.69-5.94-12.85-13.34a81.14,81.14,0,0,1-.82-12.94c0-12.32-.08-24.64.08-37,0-3-1.22-4-3.8-3.4-2.15.52-6.16-2.12-6.12,2.52.16,17.3-1.12,34.65.85,51.9,1.1,9.67,6.16,16.88,15.78,19.86a41.2,41.2,0,0,0,24.6.25c9-2.77,14.6-8.82,16.49-18.18,2-9.74.72-19.59,1.13-27.76,0-9.45,0-17.27,0-25.09C1337.13,574.28,1337.69,572.81,1336,572Z" fill="#ffffff" />
  <path d="M1510.08,571.85c-17.48.21-35,.18-52.44,0-3.68,0-3.46,2-3.44,4.44s-.44,4.64,3.36,4.45c5.48-.28,11,.14,16.47-.15,3.73-.19,5.19.63,5,4.8-.35,9.47-.11,19-.11,28.46,0,9.32.15,18.65-.08,28-.09,3.66.55,5.26,4.74,5.06,3.67-.17,5.52-.3,5.44-4.93-.31-19,0-38-.21-56.94,0-3.46.85-4.61,4.39-4.42,5.65.3,11.33-.14,17,.16,3.54.18,3.65-1.62,3.57-4.24S1514.06,571.8,1510.08,571.85Z" fill="#ffffff" />
  <path d="M1156.39,638c-9.47.28-19-.1-28.45.19-3.89.12-4.67-1.2-4.63-4.82.17-18.81,0-37.61.16-56.41,0-3.75-.74-5.16-4.86-5.17s-5.29,1.28-5.18,5.36c.28,10.65.1,21.3.1,32,0,11.15.09,22.3-.06,33.45,0,3.06.51,4.36,4,4.3,13-.22,26-.25,38.93,0,3.74.07,3.88-1.59,3.88-4.42S1160.1,637.88,1156.39,638Z" fill="#ffffff" />
  <path d="M1643.55,609.53c0-11.15-.16-22.29.09-33.43.09-3.82-1.49-4.5-4.69-4.23-2.67.23-5.52-.91-5.47,3.94q.36,33.68,0,67.36c0,4.56,2.65,3.54,5.14,3.61,2.68.07,5.16.59,5-3.82C1643.33,631.82,1643.55,620.67,1643.55,609.53Z" fill="#ffffff" />
</svg>
